<svg version="1.1" xmlns="http://www.w3.org/2000/svg" viewBox="0 0 1253.3125 447.529804996574" width="2506.625" height="895.059609993148" filter="invert(93%) hue-rotate(180deg)">
  <!-- svg-source:excalidraw -->
  
  <defs>
    <style class="style-fonts">
      @font-face {
        font-family: "Virgil";
        src: url("https://excalidraw.com/Virgil.woff2");
      }
      @font-face {
        font-family: "Cascadia";
        src: url("https://excalidraw.com/Cascadia.woff2");
      }
    </style>
    
  </defs>
  <rect x="0" y="0" width="1253.3125" height="447.529804996574" fill="#ffffff"></rect><g stroke-linecap="round" transform="translate(10 72.529804996574) rotate(0 64 61)"><path d="M52.34 -0.02 C61.41 -2.62, 74.4 -0.95, 83.86 2 C93.32 4.95, 102.09 10.81, 109.11 17.71 C116.13 24.61, 123 34.15, 125.99 43.4 C128.97 52.64, 128.93 63.76, 127.03 73.19 C125.14 82.62, 120.89 92.74, 114.61 99.98 C108.33 107.21, 98.48 112.79, 89.37 116.59 C80.27 120.4, 69.84 123.25, 59.96 122.8 C50.09 122.35, 38.53 118.94, 30.11 113.89 C21.68 108.84, 14.4 100.84, 9.42 92.51 C4.44 84.18, 0.66 73.26, 0.24 63.9 C-0.19 54.53, 2.65 44.76, 6.86 36.34 C11.07 27.92, 17.13 19.54, 25.5 13.38 C33.87 7.21, 51.06 1.42, 57.08 -0.65 C63.11 -2.72, 61.37 -0.34, 61.65 0.96 M72.05 0.43 C81.79 0.81, 94.51 5.48, 102.87 10.99 C111.23 16.51, 117.93 24.98, 122.24 33.5 C126.55 42.03, 129.03 52.53, 128.74 62.14 C128.45 71.76, 125.62 83.04, 120.5 91.18 C115.37 99.32, 106.57 105.84, 98 111 C89.43 116.16, 78.53 121.3, 69.08 122.14 C59.63 122.97, 50.51 119.71, 41.29 116.01 C32.07 112.31, 20.29 107.02, 13.77 99.92 C7.25 92.83, 3.84 82.43, 2.15 73.46 C0.47 64.49, 1.22 55.28, 3.67 46.12 C6.13 36.96, 10.14 25.79, 16.89 18.5 C23.64 11.2, 34.66 5.13, 44.17 2.34 C53.67 -0.44, 68.98 1.64, 73.91 1.77 C78.85 1.9, 73.86 2.38, 73.79 3.13" stroke="#1e1e1e" stroke-width="1" fill="none"></path></g><g transform="translate(36.380583942293356 115.8962913441946) rotate(0 37.86458206176758 17.5)"><text x="37.86458206176758" y="0" font-family="Virgil, Segoe UI Emoji" font-size="28px" fill="#2f9e44" text-anchor="middle" style="white-space: pre;" direction="ltr" dominant-baseline="text-before-edge">Client</text></g><g stroke-linecap="round" transform="translate(480 18.529804996574) rotate(0 118.5 109)"><path d="M32 0 M32 0 C98.27 1.32, 162.53 1.92, 205 0 M32 0 C80.69 -0.95, 128.53 -1.63, 205 0 M205 0 C225.81 1.01, 238.57 10.64, 237 32 M205 0 C227.57 1.12, 239.08 11.38, 237 32 M237 32 C238.53 80.87, 238.41 133.73, 237 186 M237 32 C236.96 67.98, 235.77 103.2, 237 186 M237 186 C238.92 207.49, 225.26 219.97, 205 218 M237 186 C238.32 205.78, 227.53 219.52, 205 218 M205 218 C156.93 217.12, 105.73 218.08, 32 218 M205 218 C158.36 216.59, 111.6 216.31, 32 218 M32 218 C10.42 216.71, -0.89 206.31, 0 186 M32 218 C11.48 218.13, -1.29 205.6, 0 186 M0 186 C-1.54 138.7, 0.24 86.26, 0 32 M0 186 C0.79 128.3, 0.24 69.19, 0 32 M0 32 C-0.28 8.76, 9.62 0.46, 32 0 M0 32 C0.47 11.97, 12.44 0.52, 32 0" stroke="#1e1e1e" stroke-width="1" fill="none"></path></g><g stroke-linecap="round"><g transform="translate(143 121.529804996574) rotate(0 167.5219039979298 1.06850715726614)"><path d="M-0.17 -1.14 C55.75 -0.41, 278.47 2.48, 334.37 3.28 M-1.71 0.87 C54.7 1.32, 280.7 1.17, 336.76 1.3" stroke="#1e1e1e" stroke-width="1" fill="none"></path></g><g transform="translate(143 121.529804996574) rotate(0 167.5219039979298 1.06850715726614)"><path d="M306.66 10.5 C314.92 9.88, 321.39 8.91, 337.21 1.31 M308.38 11.92 C316.02 9.56, 324.86 6.01, 337.25 1.74" stroke="#1e1e1e" stroke-width="1" fill="none"></path></g><g transform="translate(143 121.529804996574) rotate(0 167.5219039979298 1.06850715726614)"><path d="M306.67 -10.02 C314.74 -6.42, 321.21 -3.16, 337.21 1.31 M308.4 -8.6 C316.11 -4.8, 324.95 -2.19, 337.25 1.74" stroke="#1e1e1e" stroke-width="1" fill="none"></path></g></g><mask></mask><g transform="translate(233 80.529804996574) rotate(0 81.48958587646484 17.5)"><text x="0" y="0" font-family="Virgil, Segoe UI Emoji" font-size="28px" fill="#1e1e1e" text-anchor="start" style="white-space: pre;" direction="ltr" dominant-baseline="text-before-edge">/status?id=</text></g><g transform="translate(258 130.529804996574) rotate(0 31.73958396911621 17.5)"><text x="0" y="0" font-family="Virgil, Segoe UI Emoji" font-size="28px" fill="#1e1e1e" text-anchor="start" style="white-space: pre;" direction="ltr" dominant-baseline="text-before-edge">GET</text></g><g transform="translate(554 112.529804996574) rotate(0 43.1875 17.5)"><text x="0" y="0" font-family="Virgil, Segoe UI Emoji" font-size="28px" fill="#1971c2" text-anchor="start" style="white-space: pre;" direction="ltr" dominant-baseline="text-before-edge">Server</text></g><g stroke-linecap="round" transform="translate(698 312.529804996574) rotate(0 93.5 62.5)"><path d="M80.52 1.58 C92.35 -0.31, 107.45 0.37, 119.52 2.62 C131.59 4.88, 143.16 9.78, 152.93 15.12 C162.69 20.46, 172.46 26.99, 178.11 34.65 C183.76 42.31, 186.46 52.39, 186.84 61.07 C187.22 69.74, 185.17 79.09, 180.4 86.72 C175.63 94.34, 167.27 100.97, 158.22 106.84 C149.16 112.71, 137.8 119.07, 126.06 121.94 C114.31 124.81, 100.33 124.92, 87.74 124.08 C75.16 123.23, 61.76 120.68, 50.53 116.89 C39.3 113.09, 28.27 107.95, 20.36 101.31 C12.46 94.67, 6.15 85.32, 3.09 77.03 C0.02 68.74, -0.11 59.86, 1.97 51.56 C4.05 43.25, 8.56 34.14, 15.56 27.19 C22.57 20.24, 32.11 14.47, 44.01 9.85 C55.91 5.24, 78.49 1.07, 86.94 -0.48 C95.4 -2.04, 94.5 -0.51, 94.74 0.52 M77.65 -0.09 C89.66 -2.39, 106.05 0.05, 118.59 2.33 C131.14 4.6, 143.12 8.48, 152.92 13.56 C162.73 18.64, 171.99 25.4, 177.42 32.8 C182.84 40.2, 184.66 49.46, 185.47 57.97 C186.27 66.48, 186.42 75.77, 182.25 83.85 C178.08 91.92, 169.74 100.2, 160.46 106.42 C151.19 112.64, 138.72 118.2, 126.6 121.19 C114.47 124.19, 100.5 125.1, 87.73 124.41 C74.97 123.71, 61.31 120.69, 50.01 117.02 C38.71 113.36, 27.83 108.97, 19.93 102.43 C12.03 95.88, 5.87 86.16, 2.63 77.76 C-0.62 69.36, -1.58 60.34, 0.46 52.04 C2.5 43.74, 7.81 34.85, 14.87 27.97 C21.92 21.1, 32.01 15.11, 42.77 10.8 C53.53 6.49, 73.2 3.44, 79.42 2.1 C85.65 0.76, 79.79 2, 80.11 2.75" stroke="#1e1e1e" stroke-width="1" fill="none"></path></g><g transform="translate(741.9584338972902 362.3356311724148) rotate(0 49.42708206176758 12.5)"><text x="49.42708206176758" y="0" font-family="Virgil, Segoe UI Emoji" font-size="20px" fill="#e03131" text-anchor="middle" style="white-space: pre;" direction="ltr" dominant-baseline="text-before-edge">Database</text></g><g stroke-linecap="round"><g transform="translate(603 237.529804996574) rotate(0 2.0749083094904677 73.91833501905202)"><path d="M-0.36 -0.93 C0.06 24, 1.54 124.14, 2.21 148.77 M1.65 1.19 C2.49 25.85, 4.24 122.66, 4.51 147.05" stroke="#1e1e1e" stroke-width="1" fill="none"></path></g></g><mask></mask><g stroke-linecap="round"><g transform="translate(609 383.529804996574) rotate(0 42.54861914746664 -0.23308440142875497)"><path d="M0 0 C14.18 -0.08, 70.91 -0.39, 85.1 -0.47 M0 0 C14.18 -0.08, 70.91 -0.39, 85.1 -0.47" stroke="#1e1e1e" stroke-width="1" fill="none"></path></g><g transform="translate(609 383.529804996574) rotate(0 42.54861914746664 -0.23308440142875497)"><path d="M56.96 9.95 C67.36 6.1, 77.75 2.25, 85.1 -0.47 M56.96 9.95 C63.17 7.65, 69.38 5.35, 85.1 -0.47" stroke="#1e1e1e" stroke-width="1" fill="none"></path></g><g transform="translate(609 383.529804996574) rotate(0 42.54861914746664 -0.23308440142875497)"><path d="M56.85 -10.57 C67.29 -6.84, 77.72 -3.1, 85.1 -0.47 M56.85 -10.57 C63.08 -8.34, 69.32 -6.11, 85.1 -0.47" stroke="#1e1e1e" stroke-width="1" fill="none"></path></g></g><mask></mask><g transform="translate(441.24333496093914 274.694655433499) rotate(0 175.2916717529297 12.5)"><text x="0" y="0" font-family="Virgil, Segoe UI Emoji" font-size="20px" fill="#1e1e1e" text-anchor="start" style="white-space: pre;" direction="ltr" dominant-baseline="text-before-edge">Get code running status with jobId</text></g><g transform="translate(955 353.529804996574) rotate(0 144.15625 13.263450674194075)"><text x="0" y="0" font-family="Virgil, Segoe UI Emoji" font-size="21.221521078710502px" fill="#1e1e1e" text-anchor="start" style="white-space: pre;" direction="ltr" dominant-baseline="text-before-edge">Execute code in background</text></g><g transform="translate(1173 137.529804996574) rotate(0 31 8)" stroke="none"><path fill="#1e1e1e" d="M -1.06,-8.15 Q -1.06,-8.15 0.62,-9.44 2.31,-10.72 5.39,-12.63 8.47,-14.54 11.04,-15.91 13.60,-17.28 15.39,-17.96 17.17,-18.64 19.79,-19.43 22.40,-20.22 24.64,-20.57 26.89,-20.91 28.90,-21.09 30.91,-21.27 33.59,-20.72 36.26,-20.18 38.06,-19.61 39.86,-19.04 43.00,-16.97 46.14,-14.91 48.55,-12.44 50.96,-9.98 53.14,-8.06 55.31,-6.13 56.99,-3.65 58.66,-1.17 59.61,-0.05 60.56,1.06 61.22,3.53 61.88,5.99 62.24,7.35 62.60,8.70 62.97,10.18 63.34,11.67 63.24,13.87 63.15,16.08 61.95,18.71 60.75,21.35 59.15,23.59 57.55,25.83 55.57,27.93 53.60,30.04 50.96,31.59 48.33,33.14 45.28,34.17 42.24,35.21 39.48,35.82 36.71,36.44 34.46,36.70 32.21,36.97 30.18,37.10 28.14,37.24 26.17,36.52 24.19,35.81 22.65,34.69 21.12,33.58 19.86,32.58 18.61,31.59 17.68,30.48 16.76,29.37 15.83,27.25 14.90,25.13 14.26,23.26 13.62,21.39 13.25,20.19 12.89,18.99 12.80,16.47 12.70,13.94 12.97,12.78 13.24,11.62 15.15,12.23 17.05,12.85 16.11,13.57 15.17,14.29 13.87,15.64 12.57,16.99 11.47,17.77 10.37,18.56 9.96,19.53 9.54,20.50 9.21,20.62 8.88,20.74 8.53,20.78 8.18,20.82 7.82,20.77 7.47,20.72 7.14,20.59 6.81,20.46 6.53,20.26 6.24,20.05 6.01,19.79 5.77,19.52 5.61,19.20 5.45,18.89 5.37,18.54 5.29,18.20 5.30,17.84 5.30,17.49 5.39,17.15 5.48,16.80 5.65,16.49 5.82,16.18 6.05,15.92 6.29,15.66 6.59,15.46 6.88,15.26 6.07,16.47 5.26,17.67 5.70,16.00 6.14,14.32 7.37,12.92 8.60,11.52 9.15,10.54 9.70,9.57 10.24,8.55 10.78,7.53 11.54,6.71 12.30,5.89 13.12,5.11 13.93,4.33 16.03,3.92 18.13,3.51 19.35,4.13 20.56,4.75 22.07,6.03 23.57,7.32 25.26,8.73 26.96,10.14 27.32,10.53 27.69,10.91 27.91,11.39 28.13,11.88 28.18,12.40 28.24,12.93 28.12,13.44 28.01,13.96 27.73,14.41 27.46,14.87 27.06,15.21 26.65,15.55 26.16,15.74 25.67,15.94 25.14,15.97 24.61,15.99 24.10,15.85 23.59,15.71 23.15,15.41 22.72,15.11 22.40,14.69 22.08,14.26 21.91,13.76 21.74,13.26 21.74,12.73 21.75,12.20 21.92,11.70 22.09,11.20 22.41,10.78 22.73,10.36 23.17,10.06 23.61,9.77 24.12,9.63 24.63,9.49 25.16,9.52 25.69,9.55 26.18,9.75 26.67,9.94 27.07,10.29 27.47,10.63 27.74,11.09 28.02,11.54 28.13,12.06 28.24,12.57 28.18,13.10 28.12,13.63 27.90,14.11 27.67,14.59 27.31,14.97 26.94,15.35 26.48,15.60 26.01,15.84 25.48,15.93 24.96,16.01 24.44,15.93 23.92,15.84 23.45,15.59 22.98,15.34 22.98,15.34 22.98,15.34 21.37,13.96 19.75,12.58 18.62,11.24 17.49,9.90 16.46,10.87 15.42,11.83 14.90,12.93 14.37,14.03 13.57,14.99 12.77,15.95 11.80,16.45 10.83,16.95 10.19,18.72 9.55,20.50 9.21,20.62 8.88,20.74 8.53,20.78 8.18,20.82 7.82,20.77 7.47,20.72 7.14,20.59 6.81,20.46 6.53,20.26 6.24,20.05 6.01,19.79 5.77,19.52 5.61,19.20 5.45,18.89 5.37,18.54 5.29,18.20 5.30,17.84 5.30,17.49 5.39,17.15 5.48,16.80 5.65,16.49 5.82,16.18 6.05,15.92 6.29,15.66 6.59,15.46 6.88,15.26 6.86,14.90 6.83,14.53 7.82,13.76 8.80,12.98 9.66,12.17 10.53,11.37 11.43,10.55 12.34,9.74 14.31,8.97 16.28,8.21 17.60,9.61 18.92,11.01 18.01,12.75 17.09,14.49 16.89,16.31 16.69,18.13 16.84,19.20 16.98,20.26 17.54,21.93 18.11,23.61 19.52,26.26 20.94,28.92 22.05,29.96 23.17,31.00 24.29,32.01 25.42,33.01 26.77,33.72 28.11,34.42 30.00,34.34 31.89,34.26 34.00,34.00 36.10,33.75 38.72,33.14 41.33,32.54 44.10,31.59 46.88,30.65 49.15,29.32 51.43,28.00 53.21,26.02 54.99,24.04 56.37,22.01 57.75,19.97 58.68,17.91 59.62,15.84 59.68,14.11 59.73,12.39 59.48,10.86 59.22,9.33 59.09,8.04 58.96,6.76 58.46,4.81 57.97,2.87 57.17,1.61 56.37,0.36 54.91,-1.83 53.45,-4.03 51.18,-6.00 48.90,-7.96 46.70,-10.19 44.49,-12.42 41.65,-14.27 38.80,-16.12 37.24,-16.73 35.68,-17.35 33.39,-17.82 31.10,-18.29 29.23,-18.17 27.35,-18.05 25.33,-17.71 23.30,-17.36 20.75,-16.52 18.20,-15.67 16.60,-15.19 15.00,-14.70 12.55,-13.33 10.10,-11.96 7.20,-10.09 4.31,-8.22 2.69,-6.85 1.06,-5.48 0.89,-5.37 0.71,-5.27 0.52,-5.20 0.32,-5.14 0.11,-5.12 -0.08,-5.11 -0.28,-5.15 -0.49,-5.18 -0.68,-5.26 -0.87,-5.35 -1.03,-5.47 -1.19,-5.60 -1.32,-5.76 -1.45,-5.92 -1.54,-6.11 -1.62,-6.29 -1.66,-6.50 -1.70,-6.70 -1.69,-6.90 -1.68,-7.11 -1.62,-7.31 -1.56,-7.51 -1.46,-7.68 -1.35,-7.86 -1.21,-8.01 -1.06,-8.15 -1.06,-8.15 L -1.06,-8.15 Z"></path></g><g transform="translate(158 279.529804996574) rotate(0 117.22916412353516 12.000000000000028)"><text x="0" y="0" font-family="Virgil, Segoe UI Emoji" font-size="19.200000000000035px" fill="#1e1e1e" text-anchor="start" style="white-space: pre;" direction="ltr" dominant-baseline="text-before-edge">Send response with jobId</text></g><g transform="translate(904 303.529804996574) rotate(0 52.28125 11)"><text x="0" y="0" font-family="Virgil, Segoe UI Emoji" font-size="17.6px" fill="#1e1e1e" text-anchor="start" style="white-space: pre;" direction="ltr" dominant-baseline="text-before-edge">send output</text></g><g transform="translate(396 310.529804996574) rotate(0 6.5 24)" stroke="none"><path fill="#1e1e1e" d="M 0,-2.67 Q 0,-2.67 0.96,-2.68 1.93,-2.69 3.49,-1.95 5.05,-1.21 6.37,0.21 7.70,1.65 8.15,3.09 8.59,4.53 8.88,6.42 9.17,8.31 9.26,9.75 9.35,11.19 9.39,12.33 9.43,13.47 9.47,14.80 9.50,16.12 9.50,17.25 9.49,18.39 10.91,19.04 12.34,19.69 12.68,19.53 13.02,19.37 13.43,19.49 13.84,19.61 14.21,19.83 14.57,20.04 14.88,20.34 15.18,20.64 15.40,21.00 15.63,21.36 15.76,21.77 15.89,22.17 15.92,22.59 15.95,23.02 15.88,23.44 15.81,23.86 15.64,24.25 15.47,24.64 15.21,24.98 14.95,25.31 14.62,25.58 14.29,25.85 13.90,26.03 13.51,26.20 13.10,26.29 12.68,26.37 12.25,26.35 11.83,26.32 13.78,25.23 15.74,24.14 14.76,26.35 13.78,28.57 13.65,29.77 13.51,30.98 13.60,32.68 13.69,34.37 14.24,36.44 14.80,38.51 14.97,39.68 15.14,40.86 15.27,42.37 15.41,43.88 13.31,47.22 11.22,50.56 10.73,50.78 10.25,51.00 9.72,51.05 9.20,51.10 8.68,50.97 8.17,50.85 7.72,50.58 7.27,50.30 6.93,49.89 6.59,49.48 6.40,48.99 6.21,48.49 6.19,47.96 6.17,47.43 6.32,46.93 6.47,46.42 6.77,45.99 7.07,45.55 7.50,45.24 7.93,44.92 8.43,44.76 8.93,44.60 9.46,44.61 9.99,44.61 10.49,44.79 10.99,44.97 11.41,45.29 11.82,45.62 12.11,46.06 12.40,46.50 12.54,47.01 12.67,47.52 12.64,48.05 12.60,48.58 12.40,49.07 12.20,49.56 11.85,49.96 11.50,50.35 11.04,50.62 10.59,50.89 10.07,50.99 9.55,51.10 9.02,51.04 8.50,50.97 8.02,50.74 7.54,50.51 7.17,50.14 6.79,49.78 6.55,49.30 6.30,48.83 6.23,48.31 6.15,47.79 6.24,47.27 6.33,46.75 6.59,46.28 6.84,45.82 7.23,45.46 7.62,45.10 7.62,45.10 7.62,45.10 8.29,44.01 8.96,42.92 8.79,41.49 8.63,40.05 8.27,38.86 7.91,37.67 7.51,36.53 7.11,35.39 6.81,33.69 6.51,31.99 6.65,30.18 6.78,28.37 7.09,27.20 7.40,26.04 8.14,24.24 8.89,22.45 10.96,20.91 13.02,19.37 13.43,19.49 13.84,19.61 14.21,19.83 14.57,20.04 14.88,20.34 15.18,20.64 15.40,21.00 15.63,21.36 15.76,21.77 15.89,22.17 15.92,22.59 15.95,23.02 15.88,23.44 15.81,23.86 15.64,24.25 15.47,24.64 15.21,24.98 14.95,25.31 14.62,25.58 14.29,25.85 13.90,26.02 13.51,26.20 13.10,26.29 12.68,26.37 12.25,26.35 11.83,26.32 10.72,26.12 9.60,25.92 8.02,24.85 6.44,23.78 5.00,22.45 3.57,21.13 3.14,19.08 2.71,17.04 2.74,15.63 2.77,14.22 2.80,13.11 2.84,12.00 2.88,10.84 2.91,9.68 2.88,8.17 2.84,6.66 2.21,4.68 1.58,2.69 0.79,2.68 0,2.67 -0.31,2.63 -0.63,2.59 -0.94,2.48 -1.24,2.36 -1.50,2.18 -1.77,2.00 -1.98,1.76 -2.20,1.51 -2.35,1.23 -2.50,0.94 -2.57,0.63 -2.65,0.32 -2.65,-0.00 -2.65,-0.32 -2.57,-0.63 -2.50,-0.94 -2.35,-1.23 -2.20,-1.51 -1.98,-1.76 -1.77,-2.00 -1.50,-2.18 -1.24,-2.36 -0.94,-2.48 -0.63,-2.59 -0.31,-2.63 0.00,-2.67 0.00,-2.67 L 0,-2.67 Z"></path></g><g transform="translate(174 316.529804996574) rotate(0 -19 23.5)" stroke="none"><path fill="#1e1e1e" d="M -15,2.66 Q -15,2.66 -15.79,2.70 -16.59,2.73 -17.87,3.67 -19.15,4.60 -19.52,5.63 -19.89,6.65 -19.22,7.56 -18.54,8.46 -17.95,9.44 -17.35,10.42 -16.60,11.57 -15.84,12.72 -15.26,14.43 -14.68,16.15 -14.68,17.78 -14.67,19.41 -14.91,20.83 -15.15,22.25 -15.88,23.52 -16.62,24.80 -19.15,25.54 -21.67,26.28 -22.97,24.58 -24.28,22.88 -23.91,21.73 -23.54,20.58 -23.59,20.67 -23.64,20.77 -23.40,20.44 -23.16,20.12 -22.85,19.87 -22.54,19.61 -22.18,19.44 -21.82,19.27 -21.43,19.19 -21.03,19.10 -20.63,19.12 -20.23,19.13 -19.85,19.24 -19.46,19.35 -19.11,19.55 -18.76,19.75 -18.47,20.03 -18.18,20.30 -17.97,20.64 -17.75,20.98 -17.63,21.36 -17.50,21.74 -17.46,22.14 -17.43,22.54 -17.49,22.94 -17.55,23.33 -17.71,23.70 -17.87,24.07 -17.46,25.11 -17.06,26.16 -17.07,27.51 -17.08,28.87 -17.13,30.31 -17.17,31.76 -17.23,33.26 -17.28,34.76 -17.44,36.38 -17.60,37.99 -17.62,39.93 -17.64,41.86 -16.57,42.87 -15.49,43.88 -15.01,44.03 -14.54,44.19 -14.13,44.49 -13.73,44.79 -13.44,45.20 -13.15,45.62 -13.02,46.10 -12.88,46.59 -12.90,47.09 -12.92,47.59 -13.10,48.06 -13.28,48.53 -13.60,48.92 -13.93,49.30 -14.35,49.57 -14.78,49.83 -15.27,49.94 -15.76,50.06 -16.26,50.01 -16.77,49.96 -17.22,49.75 -17.68,49.55 -18.05,49.20 -18.42,48.86 -18.66,48.42 -18.90,47.98 -18.99,47.48 -19.07,46.98 -19.00,46.49 -18.92,45.99 -18.69,45.54 -18.46,45.10 -18.10,44.75 -17.74,44.40 -17.28,44.18 -16.83,43.96 -16.33,43.91 -15.83,43.85 -15.33,43.95 -14.84,44.05 -14.41,44.31 -13.97,44.56 -13.64,44.94 -13.32,45.32 -13.12,45.79 -12.93,46.25 -12.90,46.76 -12.87,47.26 -13.00,47.74 -13.13,48.23 -13.41,48.65 -13.68,49.07 -14.08,49.38 -14.48,49.69 -14.95,49.85 -15.43,50.02 -15.93,50.02 -16.44,50.03 -16.44,50.03 -16.44,50.03 -18.78,49.00 -21.12,47.98 -22.07,46.62 -23.03,45.26 -23.26,44.14 -23.49,43.01 -23.42,41.45 -23.34,39.88 -23.29,38.76 -23.23,37.63 -23.20,36.21 -23.16,34.78 -23.22,33.30 -23.29,31.81 -23.36,30.41 -23.43,29.01 -23.55,27.03 -23.67,25.05 -23.66,22.91 -23.64,20.77 -23.40,20.44 -23.16,20.12 -22.85,19.87 -22.54,19.61 -22.18,19.44 -21.82,19.27 -21.43,19.19 -21.03,19.10 -20.63,19.12 -20.23,19.13 -19.85,19.24 -19.46,19.35 -19.11,19.55 -18.77,19.75 -18.48,20.03 -18.18,20.30 -17.97,20.64 -17.75,20.98 -17.63,21.36 -17.50,21.74 -17.46,22.14 -17.43,22.54 -17.49,22.93 -17.55,23.33 -17.71,23.70 -17.87,24.07 -18.18,24.27 -18.49,24.47 -18.50,22.91 -18.52,21.34 -19.78,20.47 -21.04,19.61 -21.33,17.70 -21.63,15.79 -22.24,14.85 -22.84,13.91 -23.34,12.71 -23.84,11.51 -24.78,10.23 -25.73,8.95 -25.72,7.18 -25.71,5.42 -25.08,4.03 -24.45,2.65 -22.95,0.94 -21.44,-0.75 -19.02,-1.74 -16.59,-2.73 -15.79,-2.70 -15,-2.66 -14.68,-2.62 -14.36,-2.58 -14.06,-2.47 -13.76,-2.35 -13.49,-2.17 -13.23,-1.99 -13.02,-1.75 -12.80,-1.51 -12.66,-1.22 -12.51,-0.94 -12.43,-0.63 -12.35,-0.32 -12.35,0.00 -12.35,0.32 -12.43,0.63 -12.51,0.94 -12.66,1.22 -12.80,1.51 -13.02,1.75 -13.23,1.99 -13.49,2.17 -13.76,2.35 -14.06,2.47 -14.36,2.58 -14.68,2.62 -15.00,2.66 -15.00,2.66 L -15,2.66 Z"></path></g><g transform="translate(174 323.029804996574) rotate(0 107.79166412353516 12.5)"><text x="0" y="0" font-family="Virgil, Segoe UI Emoji" font-size="20px" fill="#1e1e1e" text-anchor="start" style="white-space: pre;" direction="ltr" dominant-baseline="text-before-edge">jobId, output, status</text></g><g stroke-linecap="round"><g transform="translate(483 217.529804996574) rotate(0 -203.5 20.562195348758195)"><path d="M0 0 C-36 9.83, -148.17 62, -216 59 C-283.83 56, -375.17 -5.17, -407 -18 M0 0 C-36 9.83, -148.17 62, -216 59 C-283.83 56, -375.17 -5.17, -407 -18" stroke="#1e1e1e" stroke-width="1" fill="none"></path></g><g transform="translate(483 217.529804996574) rotate(0 -203.5 20.562195348758195)"><path d="M-377.23 -14.3 C-385.9 -15.38, -394.58 -16.46, -407 -18 M-377.23 -14.3 C-386.49 -15.45, -395.76 -16.6, -407 -18" stroke="#1e1e1e" stroke-width="1" fill="none"></path></g><g transform="translate(483 217.529804996574) rotate(0 -203.5 20.562195348758195)"><path d="M-386.57 3.97 C-392.53 -2.43, -398.48 -8.83, -407 -18 M-386.57 3.97 C-392.93 -2.86, -399.29 -9.7, -407 -18" stroke="#1e1e1e" stroke-width="1" fill="none"></path></g></g><mask></mask><g transform="translate(888 237.529804996574) rotate(0 73.5625 12.5)"><text x="0" y="0" font-family="Virgil, Segoe UI Emoji" font-size="20px" fill="#1e1e1e" text-anchor="start" style="white-space: pre;" direction="ltr" dominant-baseline="text-before-edge">update status</text></g><g stroke-linecap="round" transform="translate(805 88.529804996574) rotate(0 104 42)"><path d="M21 0 M21 0 C56.04 0, 91.08 0, 187 0 M21 0 C77.57 0, 134.13 0, 187 0 M187 0 C201 0, 208 7, 208 21 M187 0 C201 0, 208 7, 208 21 M208 21 C208 34.72, 208 48.45, 208 63 M208 21 C208 30.05, 208 39.09, 208 63 M208 63 C208 77, 201 84, 187 84 M208 63 C208 77, 201 84, 187 84 M187 84 C121.64 84, 56.28 84, 21 84 M187 84 C121.45 84, 55.9 84, 21 84 M21 84 C7 84, 0 77, 0 63 M21 84 C7 84, 0 77, 0 63 M0 63 C0 50.89, 0 38.78, 0 21 M0 63 C0 51.87, 0 40.75, 0 21 M0 21 C0 7, 7 0, 21 0 M0 21 C0 7, 7 0, 21 0" stroke="#1e1e1e" stroke-width="1" fill="none"></path></g><g stroke-linecap="round"><g transform="translate(715 130.529804996574) rotate(0 45.5 -0.5)"><path d="M0 0 C15.17 -0.17, 75.83 -0.83, 91 -1 M0 0 C15.17 -0.17, 75.83 -0.83, 91 -1" stroke="#1e1e1e" stroke-width="1" fill="none"></path></g><g transform="translate(715 130.529804996574) rotate(0 45.5 -0.5)"><path d="M62.92 9.57 C69.17 7.22, 75.41 4.87, 91 -1 M62.92 9.57 C69.92 6.94, 76.91 4.3, 91 -1" stroke="#1e1e1e" stroke-width="1" fill="none"></path></g><g transform="translate(715 130.529804996574) rotate(0 45.5 -0.5)"><path d="M62.7 -10.95 C68.99 -8.74, 75.28 -6.53, 91 -1 M62.7 -10.95 C69.75 -8.47, 76.8 -5.99, 91 -1" stroke="#1e1e1e" stroke-width="1" fill="none"></path></g></g><mask></mask><g stroke-linecap="round" transform="translate(816 89.529804996574) rotate(0 13.041666984558105 40.5)"><path d="M6.52 0 M6.52 0 C9.33 0, 12.15 0, 19.56 0 M6.52 0 C10.75 0, 14.98 0, 19.56 0 M19.56 0 C23.91 0, 26.08 2.17, 26.08 6.52 M19.56 0 C23.91 0, 26.08 2.17, 26.08 6.52 M26.08 6.52 C26.08 23.71, 26.08 40.9, 26.08 74.48 M26.08 6.52 C26.08 24.66, 26.08 42.8, 26.08 74.48 M26.08 74.48 C26.08 78.83, 23.91 81, 19.56 81 M26.08 74.48 C26.08 78.83, 23.91 81, 19.56 81 M19.56 81 C16.29 81, 13.01 81, 6.52 81 M19.56 81 C14.69 81, 9.82 81, 6.52 81 M6.52 81 C2.17 81, 0 78.83, 0 74.48 M6.52 81 C2.17 81, 0 78.83, 0 74.48 M0 74.48 C0 56.83, 0 39.18, 0 6.52 M0 74.48 C0 55.22, 0 35.97, 0 6.52 M0 6.52 C0 2.17, 2.17 0, 6.52 0 M0 6.52 C0 2.17, 2.17 0, 6.52 0" stroke="#1e1e1e" stroke-width="1" fill="none"></path></g><g stroke-linecap="round" transform="translate(850 90.529804996574) rotate(0 12.5 39)"><path d="M6.25 0 M6.25 0 C10.97 0, 15.69 0, 18.75 0 M6.25 0 C9.28 0, 12.32 0, 18.75 0 M18.75 0 C22.92 0, 25 2.08, 25 6.25 M18.75 0 C22.92 0, 25 2.08, 25 6.25 M25 6.25 C25 30.33, 25 54.4, 25 71.75 M25 6.25 C25 25.64, 25 45.03, 25 71.75 M25 71.75 C25 75.92, 22.92 78, 18.75 78 M25 71.75 C25 75.92, 22.92 78, 18.75 78 M18.75 78 C14.88 78, 11.01 78, 6.25 78 M18.75 78 C15.54 78, 12.33 78, 6.25 78 M6.25 78 C2.08 78, 0 75.92, 0 71.75 M6.25 78 C2.08 78, 0 75.92, 0 71.75 M0 71.75 C0 56.5, 0 41.24, 0 6.25 M0 71.75 C0 46.67, 0 21.6, 0 6.25 M0 6.25 C0 2.08, 2.08 0, 6.25 0 M0 6.25 C0 2.08, 2.08 0, 6.25 0" stroke="#1e1e1e" stroke-width="1" fill="none"></path></g><g stroke-linecap="round" transform="translate(890 87.529804996574) rotate(0 13 40.5)"><path d="M6.5 0 M6.5 0 C10.16 0, 13.81 0, 19.5 0 M6.5 0 C11.31 0, 16.13 0, 19.5 0 M19.5 0 C23.83 0, 26 2.17, 26 6.5 M19.5 0 C23.83 0, 26 2.17, 26 6.5 M26 6.5 C26 25.3, 26 44.09, 26 74.5 M26 6.5 C26 28.64, 26 50.77, 26 74.5 M26 74.5 C26 78.83, 23.83 81, 19.5 81 M26 74.5 C26 78.83, 23.83 81, 19.5 81 M19.5 81 C15.82 81, 12.14 81, 6.5 81 M19.5 81 C14.3 81, 9.11 81, 6.5 81 M6.5 81 C2.17 81, 0 78.83, 0 74.5 M6.5 81 C2.17 81, 0 78.83, 0 74.5 M0 74.5 C0 58.47, 0 42.45, 0 6.5 M0 74.5 C0 47.61, 0 20.72, 0 6.5 M0 6.5 C0 2.17, 2.17 0, 6.5 0 M0 6.5 C0 2.17, 2.17 0, 6.5 0" stroke="#1e1e1e" stroke-width="1" fill="none"></path></g><g transform="translate(932 113.529804996574) rotate(0 31.69791603088379 13.5)"><text x="0" y="0" font-family="Virgil, Segoe UI Emoji" font-size="21.60000000000001px" fill="#1e1e1e" text-anchor="start" style="white-space: pre;" direction="ltr" dominant-baseline="text-before-edge">Queue</text></g><g transform="translate(828 129.529804996574) rotate(0 0.00004999999998744897 0.00004999999998744897)" stroke="none"><path fill="#2f9e44" d="M 6.28,-6.28 Q 6.28,-6.28 7.11,-5.11 7.95,-3.94 8.37,-2.57 8.80,-1.19 8.76,0.23 8.72,1.67 8.22,3.02 7.73,4.37 6.83,5.49 5.93,6.61 4.72,7.38 3.50,8.15 2.11,8.50 0.72,8.85 -0.71,8.73 -2.14,8.61 -3.46,8.05 -4.78,7.48 -5.85,6.52 -6.92,5.56 -7.63,4.31 -8.33,3.06 -8.60,1.65 -8.87,0.23 -8.68,-1.18 -8.49,-2.60 -7.85,-3.89 -7.21,-5.18 -6.19,-6.19 -5.18,-7.21 -3.89,-7.85 -2.60,-8.49 -1.18,-8.68 0.24,-8.87 1.65,-8.60 3.06,-8.33 4.31,-7.62 5.56,-6.92 6.52,-5.85 7.48,-4.78 8.05,-3.46 8.62,-2.14 8.73,-0.70 8.85,0.72 8.50,2.11 8.15,3.51 7.38,4.72 6.61,5.93 5.49,6.83 4.36,7.73 3.02,8.22 1.67,8.72 0.23,8.76 -1.20,8.80 -2.57,8.37 -3.94,7.95 -5.11,7.11 -6.28,6.27 -6.28,6.28 -6.28,6.28 -6.94,5.43 -7.60,4.59 -8.04,3.61 -8.48,2.64 -8.67,1.58 -8.86,0.53 -8.80,-0.53 -8.73,-1.60 -8.41,-2.62 -8.09,-3.64 -7.54,-4.56 -6.99,-5.47 -6.23,-6.23 -5.47,-6.99 -4.56,-7.54 -3.64,-8.10 -2.62,-8.41 -1.60,-8.73 -0.53,-8.80 0.53,-8.86 1.59,-8.67 2.64,-8.48 3.61,-8.04 4.59,-7.60 5.43,-6.94 6.28,-6.28 6.28,-6.28 L 6.28,-6.28 Z"></path></g><g transform="translate(863 129.529804996574) rotate(0 0.00004999999998744897 0.00004999999998744897)" stroke="none"><path fill="#2f9e44" d="M 6.28,-6.28 Q 6.28,-6.28 7.11,-5.11 7.95,-3.94 8.37,-2.57 8.80,-1.19 8.76,0.23 8.72,1.67 8.22,3.02 7.73,4.37 6.83,5.49 5.93,6.61 4.72,7.38 3.50,8.15 2.11,8.50 0.72,8.85 -0.71,8.73 -2.14,8.61 -3.46,8.05 -4.78,7.48 -5.85,6.52 -6.92,5.56 -7.63,4.31 -8.33,3.06 -8.60,1.65 -8.87,0.23 -8.68,-1.18 -8.49,-2.60 -7.85,-3.89 -7.21,-5.18 -6.19,-6.19 -5.18,-7.21 -3.89,-7.85 -2.60,-8.49 -1.18,-8.68 0.24,-8.87 1.65,-8.60 3.06,-8.33 4.31,-7.62 5.56,-6.92 6.52,-5.85 7.48,-4.78 8.05,-3.46 8.62,-2.14 8.73,-0.70 8.85,0.72 8.50,2.11 8.15,3.51 7.38,4.72 6.61,5.93 5.49,6.83 4.36,7.73 3.02,8.22 1.67,8.72 0.23,8.76 -1.20,8.80 -2.57,8.37 -3.94,7.95 -5.11,7.11 -6.28,6.27 -6.28,6.28 -6.28,6.28 -6.94,5.43 -7.60,4.59 -8.04,3.61 -8.48,2.64 -8.67,1.58 -8.86,0.53 -8.80,-0.53 -8.73,-1.60 -8.41,-2.62 -8.09,-3.64 -7.54,-4.56 -6.99,-5.47 -6.23,-6.23 -5.47,-6.99 -4.56,-7.54 -3.64,-8.10 -2.62,-8.41 -1.60,-8.73 -0.53,-8.80 0.53,-8.86 1.59,-8.67 2.64,-8.48 3.61,-8.04 4.59,-7.60 5.43,-6.94 6.28,-6.28 6.28,-6.28 L 6.28,-6.28 Z"></path></g><g transform="translate(905 126.529804996574) rotate(0 0.00004999999998744897 0.00004999999998744897)" stroke="none"><path fill="#2f9e44" d="M 6.28,-6.28 Q 6.28,-6.28 7.11,-5.11 7.95,-3.94 8.37,-2.57 8.80,-1.19 8.76,0.23 8.72,1.67 8.22,3.02 7.73,4.37 6.83,5.49 5.93,6.61 4.72,7.38 3.50,8.15 2.11,8.50 0.72,8.85 -0.71,8.73 -2.14,8.61 -3.46,8.05 -4.78,7.48 -5.85,6.52 -6.92,5.56 -7.63,4.31 -8.33,3.06 -8.60,1.65 -8.87,0.23 -8.68,-1.18 -8.49,-2.60 -7.85,-3.89 -7.21,-5.18 -6.19,-6.19 -5.18,-7.21 -3.89,-7.85 -2.60,-8.49 -1.18,-8.68 0.24,-8.87 1.65,-8.60 3.06,-8.33 4.31,-7.62 5.56,-6.92 6.52,-5.85 7.48,-4.78 8.05,-3.46 8.62,-2.14 8.73,-0.70 8.85,0.72 8.50,2.11 8.15,3.51 7.38,4.72 6.61,5.93 5.49,6.83 4.36,7.73 3.02,8.22 1.67,8.72 0.23,8.76 -1.20,8.80 -2.57,8.37 -3.94,7.95 -5.11,7.11 -6.28,6.27 -6.28,6.28 -6.28,6.28 -6.94,5.43 -7.60,4.59 -8.04,3.61 -8.48,2.64 -8.67,1.58 -8.86,0.53 -8.80,-0.53 -8.73,-1.60 -8.41,-2.62 -8.09,-3.64 -7.54,-4.56 -6.99,-5.47 -6.23,-6.23 -5.47,-6.99 -4.56,-7.54 -3.64,-8.10 -2.62,-8.41 -1.60,-8.73 -0.53,-8.80 0.53,-8.86 1.59,-8.67 2.64,-8.48 3.61,-8.04 4.59,-7.60 5.43,-6.94 6.28,-6.28 6.28,-6.28 L 6.28,-6.28 Z"></path></g><g stroke-linecap="round" transform="translate(1072 60.529804996574) rotate(0 34 26.5)"><path d="M13.25 0 M13.25 0 C22.46 0, 31.67 0, 54.75 0 M13.25 0 C28.67 0, 44.09 0, 54.75 0 M54.75 0 C63.58 0, 68 4.42, 68 13.25 M54.75 0 C63.58 0, 68 4.42, 68 13.25 M68 13.25 C68 19.92, 68 26.59, 68 39.75 M68 13.25 C68 20.93, 68 28.62, 68 39.75 M68 39.75 C68 48.58, 63.58 53, 54.75 53 M68 39.75 C68 48.58, 63.58 53, 54.75 53 M54.75 53 C43.33 53, 31.91 53, 13.25 53 M54.75 53 C45.15 53, 35.54 53, 13.25 53 M13.25 53 C4.42 53, 0 48.58, 0 39.75 M13.25 53 C4.42 53, 0 48.58, 0 39.75 M0 39.75 C0 29.56, 0 19.37, 0 13.25 M0 39.75 C0 29.25, 0 18.75, 0 13.25 M0 13.25 C0 4.42, 4.42 0, 13.25 0 M0 13.25 C0 4.42, 4.42 0, 13.25 0" stroke="#1e1e1e" stroke-width="1" fill="none"></path></g><g transform="translate(1078.46875 67.029804996574) rotate(0 27.53125 20)"><text x="27.53125" y="0" font-family="Virgil, Segoe UI Emoji" font-size="16px" fill="#1971c2" text-anchor="middle" style="white-space: pre;" direction="ltr" dominant-baseline="text-before-edge">contain</text><text x="27.53125" y="20" font-family="Virgil, Segoe UI Emoji" font-size="16px" fill="#1971c2" text-anchor="middle" style="white-space: pre;" direction="ltr" dominant-baseline="text-before-edge">er</text></g><g stroke-linecap="round" transform="translate(1043 30.529804996574) rotate(0 63.5 55.99999999999997)"><path d="M80 14 M80 14 C91.58 24.46, 103.16 34.92, 111 42 M80 14 C90.68 23.65, 101.36 33.29, 111 42 M111 42 C127 56, 127 56, 111 70 M111 42 C127 56, 127 56, 111 70 M111 70 C98.86 80.96, 86.72 91.93, 80 98 M111 70 C100.1 79.84, 89.21 89.69, 80 98 M80 98 C64 112, 64 112, 48 98 M80 98 C64 112, 64 112, 48 98 M48 98 C39.24 90.33, 30.48 82.67, 16 70 M48 98 C36.45 87.89, 24.89 77.78, 16 70 M16 70 C0 56, 0 56, 16 42 M16 70 C0 56, 0 56, 16 42 M16 42 C24.06 34.95, 32.11 27.9, 48 14 M16 42 C26.18 33.09, 36.35 24.19, 48 14 M48 14 C64 0, 64 0, 80 14 M48 14 C64 0, 64 0, 80 14" stroke="#f08c00" stroke-width="4" fill="none"></path></g><g stroke-linecap="round" transform="translate(1075 189.529804996574) rotate(0 34 26.5)"><path d="M13.25 0 M13.25 0 C28.6 0, 43.96 0, 54.75 0 M13.25 0 C22.18 0, 31.1 0, 54.75 0 M54.75 0 C63.58 0, 68 4.42, 68 13.25 M54.75 0 C63.58 0, 68 4.42, 68 13.25 M68 13.25 C68 19.78, 68 26.31, 68 39.75 M68 13.25 C68 22.93, 68 32.61, 68 39.75 M68 39.75 C68 48.58, 63.58 53, 54.75 53 M68 39.75 C68 48.58, 63.58 53, 54.75 53 M54.75 53 C44.96 53, 35.16 53, 13.25 53 M54.75 53 C41.18 53, 27.61 53, 13.25 53 M13.25 53 C4.42 53, 0 48.58, 0 39.75 M13.25 53 C4.42 53, 0 48.58, 0 39.75 M0 39.75 C0 34.35, 0 28.95, 0 13.25 M0 39.75 C0 29.18, 0 18.62, 0 13.25 M0 13.25 C0 4.42, 4.42 0, 13.25 0 M0 13.25 C0 4.42, 4.42 0, 13.25 0" stroke="#1e1e1e" stroke-width="1" fill="none"></path></g><g transform="translate(1081.46875 196.029804996574) rotate(0 27.53125 20)"><text x="27.53125" y="0" font-family="Virgil, Segoe UI Emoji" font-size="16px" fill="#1971c2" text-anchor="middle" style="white-space: pre;" direction="ltr" dominant-baseline="text-before-edge">contain</text><text x="27.53125" y="20" font-family="Virgil, Segoe UI Emoji" font-size="16px" fill="#1971c2" text-anchor="middle" style="white-space: pre;" direction="ltr" dominant-baseline="text-before-edge">er</text></g><g stroke-linecap="round" transform="translate(1046 159.529804996574) rotate(0 63.5 55.99999999999997)"><path d="M80 14 M80 14 C91.34 24.24, 102.69 34.49, 111 42 M80 14 C88.74 21.9, 97.48 29.79, 111 42 M111 42 C127 56, 127 56, 111 70 M111 42 C127 56, 127 56, 111 70 M111 70 C102.58 77.6, 94.16 85.21, 80 98 M111 70 C100.34 79.63, 89.68 89.26, 80 98 M80 98 C64 112, 64 112, 48 98 M80 98 C64 112, 64 112, 48 98 M48 98 C37.77 89.05, 27.53 80.09, 16 70 M48 98 C40.49 91.43, 32.99 84.86, 16 70 M16 70 C0 56, 0 56, 16 42 M16 70 C0 56, 0 56, 16 42 M16 42 C25.13 34.01, 34.26 26.02, 48 14 M16 42 C22.82 36.03, 29.64 30.07, 48 14 M48 14 C64 0, 64 0, 80 14 M48 14 C64 0, 64 0, 80 14" stroke="#f08c00" stroke-width="4" fill="none"></path></g><g stroke-linecap="round"><g transform="translate(832 87.529804996574) rotate(0 121.5 -38.76490249828703)"><path d="M0 0 C6.33 -12.83, -2.5 -71.33, 38 -77 C78.5 -82.67, 208.83 -41.17, 243 -34 M0 0 C6.33 -12.83, -2.5 -71.33, 38 -77 C78.5 -82.67, 208.83 -41.17, 243 -34" stroke="#1e1e1e" stroke-width="1" fill="none"></path></g><g transform="translate(832 87.529804996574) rotate(0 121.5 -38.76490249828703)"><path d="M213.13 -31.21 C220.38 -31.88, 227.63 -32.56, 243 -34 M213.13 -31.21 C220.57 -31.9, 228.01 -32.6, 243 -34" stroke="#1e1e1e" stroke-width="1" fill="none"></path></g><g transform="translate(832 87.529804996574) rotate(0 121.5 -38.76490249828703)"><path d="M218.32 -51.06 C224.31 -46.92, 230.3 -42.78, 243 -34 M218.32 -51.06 C224.47 -46.81, 230.62 -42.56, 243 -34" stroke="#1e1e1e" stroke-width="1" fill="none"></path></g></g><mask></mask><g stroke-linecap="round"><g transform="translate(871 88.529804996574) rotate(0 107.5 30.212493140341167)"><path d="M0 0 C20.17 -4.67, 85.17 -43.33, 121 -28 C156.83 -12.67, 199.33 72, 215 92 M0 0 C20.17 -4.67, 85.17 -43.33, 121 -28 C156.83 -12.67, 199.33 72, 215 92" stroke="#1e1e1e" stroke-width="1" fill="none"></path></g><g transform="translate(871 88.529804996574) rotate(0 107.5 30.212493140341167)"><path d="M191.14 73.82 C200.06 80.62, 208.99 87.42, 215 92 M191.14 73.82 C199.06 79.85, 206.97 85.89, 215 92" stroke="#1e1e1e" stroke-width="1" fill="none"></path></g><g transform="translate(871 88.529804996574) rotate(0 107.5 30.212493140341167)"><path d="M208.41 62.73 C210.87 73.68, 213.34 84.62, 215 92 M208.41 62.73 C210.59 72.45, 212.78 82.16, 215 92" stroke="#1e1e1e" stroke-width="1" fill="none"></path></g></g><mask></mask><g stroke-linecap="round"><g transform="translate(1071.1362611149298 112.67620091469968) rotate(0 -109.55853013165813 106.4477314714855)"><path d="M0 0 C-36.52 35.48, -182.6 177.41, -219.12 212.9 M0 0 C-36.52 35.48, -182.6 177.41, -219.12 212.9" stroke="#1e1e1e" stroke-width="1" fill="none"></path></g><g transform="translate(1071.1362611149298 112.67620091469968) rotate(0 -109.55853013165813 106.4477314714855)"><path d="M-206.05 185.89 C-210.97 196.05, -215.89 206.22, -219.12 212.9 M-206.05 185.89 C-209.14 192.27, -212.23 198.66, -219.12 212.9" stroke="#1e1e1e" stroke-width="1" fill="none"></path></g><g transform="translate(1071.1362611149298 112.67620091469968) rotate(0 -109.55853013165813 106.4477314714855)"><path d="M-191.75 200.61 C-202.05 205.23, -212.35 209.86, -219.12 212.9 M-191.75 200.61 C-198.22 203.51, -204.68 206.42, -219.12 212.9" stroke="#1e1e1e" stroke-width="1" fill="none"></path></g></g><mask></mask><g stroke-linecap="round"><g transform="translate(1066 239.529804996574) rotate(0 -106.7206063210956 43.51738935882781)"><path d="M0 0 C-35.57 14.51, -177.87 72.53, -213.44 87.03 M0 0 C-35.57 14.51, -177.87 72.53, -213.44 87.03" stroke="#1e1e1e" stroke-width="1" fill="none"></path></g><g transform="translate(1066 239.529804996574) rotate(0 -106.7206063210956 43.51738935882781)"><path d="M-191.21 66.89 C-196.63 71.8, -202.06 76.72, -213.44 87.03 M-191.21 66.89 C-197.35 72.45, -203.49 78.02, -213.44 87.03" stroke="#1e1e1e" stroke-width="1" fill="none"></path></g><g transform="translate(1066 239.529804996574) rotate(0 -106.7206063210956 43.51738935882781)"><path d="M-183.46 85.89 C-190.78 86.17, -198.09 86.45, -213.44 87.03 M-183.46 85.89 C-191.74 86.21, -200.02 86.52, -213.44 87.03" stroke="#1e1e1e" stroke-width="1" fill="none"></path></g></g><mask></mask><g transform="translate(873 179.529804996574) rotate(0 32.90625 12.5)"><text x="0" y="0" font-family="Virgil, Segoe UI Emoji" font-size="20px" fill="#1e1e1e" text-anchor="start" style="white-space: pre;" direction="ltr" dominant-baseline="text-before-edge">BullMQ</text></g><g transform="translate(1152 39.529804996574) rotate(0 38.29166793823242 12.5)"><text x="0" y="0" font-family="Virgil, Segoe UI Emoji" font-size="20px" fill="#1e1e1e" text-anchor="start" style="white-space: pre;" direction="ltr" dominant-baseline="text-before-edge">worker 1</text></g><g transform="translate(1147 245.529804996574) rotate(0 42.70833206176758 12.5)"><text x="0" y="0" font-family="Virgil, Segoe UI Emoji" font-size="20px" fill="#1e1e1e" text-anchor="start" style="white-space: pre;" direction="ltr" dominant-baseline="text-before-edge">worker 2</text></g><g transform="translate(925 262.529804996574) rotate(0 9.84375 12.5)"><text x="0" y="0" font-family="Virgil, Segoe UI Emoji" font-size="20px" fill="#1e1e1e" text-anchor="start" style="white-space: pre;" direction="ltr" dominant-baseline="text-before-edge">or</text></g><g transform="translate(578 153.029804996574) rotate(0 25.47916603088379 10)"><text x="0" y="0" font-family="Virgil, Segoe UI Emoji" font-size="16px" fill="#1e1e1e" text-anchor="start" style="white-space: pre;" direction="ltr" dominant-baseline="text-before-edge">Nodejs</text></g><g transform="translate(35 149.029804996574) rotate(0 36.82291793823242 10)"><text x="0" y="0" font-family="Virgil, Segoe UI Emoji" font-size="16px" fill="#1e1e1e" text-anchor="start" style="white-space: pre;" direction="ltr" dominant-baseline="text-before-edge">ReactApp</text></g><g transform="translate(761 386.029804996574) rotate(0 31.34375 10)"><text x="0" y="0" font-family="Virgil, Segoe UI Emoji" font-size="16px" fill="#1e1e1e" text-anchor="start" style="white-space: pre;" direction="ltr" dominant-baseline="text-before-edge">Mongodb</text></g><g transform="translate(222 166.029804996574) rotate(0 71.5 10)"><text x="0" y="0" font-family="Virgil, Segoe UI Emoji" font-size="16px" fill="#1e1e1e" text-anchor="start" style="white-space: pre;" direction="ltr" dominant-baseline="text-before-edge">(ShortPolling: 1sec)</text></g></svg>